<mxfile host="app.diagrams.net" modified="2022-06-12T16:27:53.438Z" agent="5.0 (Windows NT 10.0; Win64; x64) AppleWebKit/537.36 (KHTML, like Gecko) Chrome/102.0.5005.63 Safari/537.36" etag="qL-ORwlK772LnvTHFKeW" version="20.0.0" type="github">
  <diagram id="-p__1ZMTshBO_-eSBYka" name="Page-1">
    <mxGraphModel dx="1196" dy="713" grid="1" gridSize="10" guides="1" tooltips="1" connect="1" arrows="1" fold="1" page="1" pageScale="1" pageWidth="850" pageHeight="1100" background="#61ADB0" math="0" shadow="0">
      <root>
        <mxCell id="0" />
        <mxCell id="1" parent="0" />
        <mxCell id="feFIpkgyWD4qysGt8sMT-2" value="&lt;font style=&quot;font-size: 16px;&quot;&gt;Exact&lt;/font&gt;" style="rounded=1;whiteSpace=wrap;html=1;" vertex="1" parent="1">
          <mxGeometry x="160" y="140" width="120" height="60" as="geometry" />
        </mxCell>
        <mxCell id="feFIpkgyWD4qysGt8sMT-3" value="&lt;font style=&quot;font-size: 16px;&quot;&gt;Approximate&lt;/font&gt;" style="rounded=1;whiteSpace=wrap;html=1;" vertex="1" parent="1">
          <mxGeometry x="603" y="138" width="120" height="60" as="geometry" />
        </mxCell>
        <mxCell id="feFIpkgyWD4qysGt8sMT-4" value="Online" style="rounded=1;whiteSpace=wrap;html=1;fontSize=16;" vertex="1" parent="1">
          <mxGeometry x="40" y="280" width="120" height="60" as="geometry" />
        </mxCell>
        <mxCell id="feFIpkgyWD4qysGt8sMT-5" value="Offline" style="rounded=1;whiteSpace=wrap;html=1;fontSize=16;" vertex="1" parent="1">
          <mxGeometry x="280" y="280" width="120" height="60" as="geometry" />
        </mxCell>
        <mxCell id="feFIpkgyWD4qysGt8sMT-6" value="Online" style="rounded=1;whiteSpace=wrap;html=1;fontSize=16;" vertex="1" parent="1">
          <mxGeometry x="475" y="280" width="120" height="60" as="geometry" />
        </mxCell>
        <mxCell id="feFIpkgyWD4qysGt8sMT-7" value="Offline" style="rounded=1;whiteSpace=wrap;html=1;fontSize=16;" vertex="1" parent="1">
          <mxGeometry x="716" y="280" width="120" height="60" as="geometry" />
        </mxCell>
        <mxCell id="feFIpkgyWD4qysGt8sMT-8" value="" style="endArrow=none;html=1;rounded=0;fontSize=16;strokeWidth=2;" edge="1" parent="1">
          <mxGeometry width="50" height="50" relative="1" as="geometry">
            <mxPoint x="99" y="240" as="sourcePoint" />
            <mxPoint x="340" y="240" as="targetPoint" />
          </mxGeometry>
        </mxCell>
        <mxCell id="feFIpkgyWD4qysGt8sMT-9" value="" style="endArrow=none;html=1;rounded=0;fontSize=16;strokeWidth=2;" edge="1" parent="1">
          <mxGeometry width="50" height="50" relative="1" as="geometry">
            <mxPoint x="219.5" y="240" as="sourcePoint" />
            <mxPoint x="219.5" y="200" as="targetPoint" />
          </mxGeometry>
        </mxCell>
        <mxCell id="feFIpkgyWD4qysGt8sMT-10" value="" style="endArrow=none;html=1;rounded=0;fontSize=16;strokeWidth=2;" edge="1" parent="1">
          <mxGeometry width="50" height="50" relative="1" as="geometry">
            <mxPoint x="666.5" y="239" as="sourcePoint" />
            <mxPoint x="666.5" y="199" as="targetPoint" />
          </mxGeometry>
        </mxCell>
        <mxCell id="feFIpkgyWD4qysGt8sMT-11" value="" style="endArrow=none;html=1;rounded=0;fontSize=16;strokeWidth=2;" edge="1" parent="1">
          <mxGeometry width="50" height="50" relative="1" as="geometry">
            <mxPoint x="99.5" y="280" as="sourcePoint" />
            <mxPoint x="100" y="240" as="targetPoint" />
          </mxGeometry>
        </mxCell>
        <mxCell id="feFIpkgyWD4qysGt8sMT-12" value="" style="endArrow=none;html=1;rounded=0;fontSize=16;strokeWidth=2;" edge="1" parent="1">
          <mxGeometry width="50" height="50" relative="1" as="geometry">
            <mxPoint x="339.5" y="281" as="sourcePoint" />
            <mxPoint x="340" y="241" as="targetPoint" />
          </mxGeometry>
        </mxCell>
        <mxCell id="feFIpkgyWD4qysGt8sMT-13" value="" style="endArrow=none;html=1;rounded=0;fontSize=16;strokeWidth=2;" edge="1" parent="1">
          <mxGeometry width="50" height="50" relative="1" as="geometry">
            <mxPoint x="525" y="240" as="sourcePoint" />
            <mxPoint x="780" y="240" as="targetPoint" />
          </mxGeometry>
        </mxCell>
        <mxCell id="feFIpkgyWD4qysGt8sMT-14" value="" style="endArrow=none;html=1;rounded=0;fontSize=16;strokeWidth=2;" edge="1" parent="1">
          <mxGeometry width="50" height="50" relative="1" as="geometry">
            <mxPoint x="524" y="280" as="sourcePoint" />
            <mxPoint x="524" y="240" as="targetPoint" />
          </mxGeometry>
        </mxCell>
        <mxCell id="feFIpkgyWD4qysGt8sMT-15" value="" style="endArrow=none;html=1;rounded=0;fontSize=16;strokeWidth=2;" edge="1" parent="1">
          <mxGeometry width="50" height="50" relative="1" as="geometry">
            <mxPoint x="779" y="280" as="sourcePoint" />
            <mxPoint x="779" y="240" as="targetPoint" />
          </mxGeometry>
        </mxCell>
        <mxCell id="feFIpkgyWD4qysGt8sMT-16" value="" style="rounded=0;whiteSpace=wrap;html=1;fontSize=16;" vertex="1" parent="1">
          <mxGeometry x="160" y="10" width="560" height="60" as="geometry" />
        </mxCell>
        <mxCell id="feFIpkgyWD4qysGt8sMT-1" value="Pattern Matching Algorithms" style="text;strokeColor=none;fillColor=none;html=1;fontSize=24;fontStyle=1;verticalAlign=middle;align=center;" vertex="1" parent="1">
          <mxGeometry x="360" y="25" width="130" height="30" as="geometry" />
        </mxCell>
        <mxCell id="feFIpkgyWD4qysGt8sMT-18" value="" style="endArrow=none;html=1;rounded=0;fontSize=16;strokeWidth=2;entryX=0.106;entryY=1.022;entryDx=0;entryDy=0;entryPerimeter=0;" edge="1" parent="1" target="feFIpkgyWD4qysGt8sMT-16">
          <mxGeometry width="50" height="50" relative="1" as="geometry">
            <mxPoint x="220" y="140" as="sourcePoint" />
            <mxPoint x="220" y="80" as="targetPoint" />
          </mxGeometry>
        </mxCell>
        <mxCell id="feFIpkgyWD4qysGt8sMT-19" value="" style="endArrow=none;html=1;rounded=0;fontSize=16;strokeWidth=2;entryX=0.106;entryY=1.022;entryDx=0;entryDy=0;entryPerimeter=0;" edge="1" parent="1">
          <mxGeometry width="50" height="50" relative="1" as="geometry">
            <mxPoint x="665" y="139" as="sourcePoint" />
            <mxPoint x="664.3599999999999" y="70.32000000000005" as="targetPoint" />
          </mxGeometry>
        </mxCell>
        <mxCell id="feFIpkgyWD4qysGt8sMT-20" value="" style="endArrow=none;html=1;rounded=0;fontSize=16;strokeWidth=1;dashed=1;" edge="1" parent="1">
          <mxGeometry width="50" height="50" relative="1" as="geometry">
            <mxPoint x="40" y="640" as="sourcePoint" />
            <mxPoint x="40" y="330" as="targetPoint" />
          </mxGeometry>
        </mxCell>
        <mxCell id="feFIpkgyWD4qysGt8sMT-21" value="" style="endArrow=none;html=1;rounded=0;fontSize=16;strokeWidth=1;dashed=1;" edge="1" parent="1">
          <mxGeometry width="50" height="50" relative="1" as="geometry">
            <mxPoint x="279" y="641" as="sourcePoint" />
            <mxPoint x="279" y="331" as="targetPoint" />
          </mxGeometry>
        </mxCell>
        <mxCell id="feFIpkgyWD4qysGt8sMT-22" value="" style="endArrow=none;html=1;rounded=0;fontSize=16;strokeWidth=1;dashed=1;" edge="1" parent="1">
          <mxGeometry width="50" height="50" relative="1" as="geometry">
            <mxPoint x="475" y="639" as="sourcePoint" />
            <mxPoint x="475" y="329" as="targetPoint" />
          </mxGeometry>
        </mxCell>
        <mxCell id="feFIpkgyWD4qysGt8sMT-23" value="" style="endArrow=none;html=1;rounded=0;fontSize=16;strokeWidth=1;dashed=1;" edge="1" parent="1">
          <mxGeometry width="50" height="50" relative="1" as="geometry">
            <mxPoint x="716" y="639" as="sourcePoint" />
            <mxPoint x="716" y="329" as="targetPoint" />
          </mxGeometry>
        </mxCell>
        <mxCell id="feFIpkgyWD4qysGt8sMT-24" value="" style="endArrow=none;html=1;rounded=0;fontSize=16;strokeWidth=1;" edge="1" parent="1">
          <mxGeometry width="50" height="50" relative="1" as="geometry">
            <mxPoint x="280" y="360" as="sourcePoint" />
            <mxPoint x="300" y="360" as="targetPoint" />
          </mxGeometry>
        </mxCell>
        <mxCell id="feFIpkgyWD4qysGt8sMT-25" value="" style="endArrow=none;html=1;rounded=0;fontSize=16;strokeWidth=1;" edge="1" parent="1">
          <mxGeometry width="50" height="50" relative="1" as="geometry">
            <mxPoint x="280" y="419" as="sourcePoint" />
            <mxPoint x="300" y="419" as="targetPoint" />
          </mxGeometry>
        </mxCell>
        <mxCell id="feFIpkgyWD4qysGt8sMT-26" value="&lt;font color=&quot;#ffffff&quot;&gt;MP&lt;/font&gt;" style="text;html=1;strokeColor=none;fillColor=none;align=center;verticalAlign=middle;whiteSpace=wrap;rounded=0;fontSize=16;fontColor=#000000;" vertex="1" parent="1">
          <mxGeometry x="284" y="345" width="60" height="30" as="geometry" />
        </mxCell>
        <mxCell id="feFIpkgyWD4qysGt8sMT-27" value="&lt;font color=&quot;#ffffff&quot;&gt;&amp;nbsp; &amp;nbsp;KMP&lt;/font&gt;" style="text;html=1;strokeColor=none;fillColor=none;align=center;verticalAlign=middle;whiteSpace=wrap;rounded=0;fontSize=16;" vertex="1" parent="1">
          <mxGeometry x="283" y="404" width="60" height="30" as="geometry" />
        </mxCell>
        <mxCell id="feFIpkgyWD4qysGt8sMT-28" value="&lt;font color=&quot;#ffffff&quot;&gt;&amp;nbsp; &amp;nbsp;MPS&lt;/font&gt;" style="text;html=1;strokeColor=none;fillColor=none;align=center;verticalAlign=middle;whiteSpace=wrap;rounded=0;fontSize=16;" vertex="1" parent="1">
          <mxGeometry x="282" y="455" width="60" height="30" as="geometry" />
        </mxCell>
        <mxCell id="feFIpkgyWD4qysGt8sMT-29" value="" style="endArrow=none;html=1;rounded=0;fontSize=16;strokeWidth=1;" edge="1" parent="1">
          <mxGeometry width="50" height="50" relative="1" as="geometry">
            <mxPoint x="280" y="469" as="sourcePoint" />
            <mxPoint x="300" y="469" as="targetPoint" />
          </mxGeometry>
        </mxCell>
        <mxCell id="feFIpkgyWD4qysGt8sMT-34" value="" style="endArrow=none;html=1;rounded=0;fontSize=16;strokeWidth=1;" edge="1" parent="1">
          <mxGeometry width="50" height="50" relative="1" as="geometry">
            <mxPoint x="280" y="548" as="sourcePoint" />
            <mxPoint x="300" y="548" as="targetPoint" />
          </mxGeometry>
        </mxCell>
        <mxCell id="feFIpkgyWD4qysGt8sMT-35" value="" style="endArrow=none;html=1;rounded=0;fontSize=16;strokeWidth=1;" edge="1" parent="1">
          <mxGeometry width="50" height="50" relative="1" as="geometry">
            <mxPoint x="279" y="600" as="sourcePoint" />
            <mxPoint x="299" y="600" as="targetPoint" />
          </mxGeometry>
        </mxCell>
        <mxCell id="feFIpkgyWD4qysGt8sMT-37" value="BM" style="text;html=1;strokeColor=none;fillColor=none;align=center;verticalAlign=middle;whiteSpace=wrap;rounded=0;fontSize=16;fontColor=#FFFFFF;" vertex="1" parent="1">
          <mxGeometry x="288" y="623" width="60" height="30" as="geometry" />
        </mxCell>
        <mxCell id="feFIpkgyWD4qysGt8sMT-38" value="TURBO_BM" style="text;html=1;strokeColor=none;fillColor=none;align=center;verticalAlign=middle;whiteSpace=wrap;rounded=0;fontSize=16;fontColor=#FFFFFF;" vertex="1" parent="1">
          <mxGeometry x="285.5" y="533" width="119" height="30" as="geometry" />
        </mxCell>
        <mxCell id="feFIpkgyWD4qysGt8sMT-39" value="" style="endArrow=none;html=1;rounded=0;fontSize=16;strokeWidth=1;" edge="1" parent="1">
          <mxGeometry width="50" height="50" relative="1" as="geometry">
            <mxPoint x="279" y="639" as="sourcePoint" />
            <mxPoint x="299" y="639" as="targetPoint" />
          </mxGeometry>
        </mxCell>
        <mxCell id="feFIpkgyWD4qysGt8sMT-40" value="TW" style="text;html=1;strokeColor=none;fillColor=none;align=center;verticalAlign=middle;whiteSpace=wrap;rounded=0;fontSize=16;fontColor=#FFFFFF;" vertex="1" parent="1">
          <mxGeometry x="286" y="585" width="60" height="30" as="geometry" />
        </mxCell>
        <mxCell id="feFIpkgyWD4qysGt8sMT-44" value="" style="endArrow=none;html=1;rounded=0;fontSize=16;strokeWidth=1;" edge="1" parent="1">
          <mxGeometry width="50" height="50" relative="1" as="geometry">
            <mxPoint x="41" y="639" as="sourcePoint" />
            <mxPoint x="61" y="639" as="targetPoint" />
          </mxGeometry>
        </mxCell>
        <mxCell id="feFIpkgyWD4qysGt8sMT-45" value="SA" style="text;html=1;strokeColor=none;fillColor=none;align=center;verticalAlign=middle;whiteSpace=wrap;rounded=0;fontSize=16;fontColor=#FFFFFF;" vertex="1" parent="1">
          <mxGeometry x="455" y="343" width="80" height="30" as="geometry" />
        </mxCell>
        <mxCell id="feFIpkgyWD4qysGt8sMT-47" value="AOSA" style="text;html=1;strokeColor=none;fillColor=none;align=center;verticalAlign=middle;whiteSpace=wrap;rounded=0;fontSize=16;fontColor=#FFFFFF;" vertex="1" parent="1">
          <mxGeometry x="475" y="380" width="65" height="36" as="geometry" />
        </mxCell>
        <mxCell id="feFIpkgyWD4qysGt8sMT-48" value="LCTS" style="text;html=1;strokeColor=none;fillColor=none;align=center;verticalAlign=middle;whiteSpace=wrap;rounded=0;fontSize=16;fontColor=#FFFFFF;" vertex="1" parent="1">
          <mxGeometry x="455" y="425" width="95" height="30" as="geometry" />
        </mxCell>
        <mxCell id="feFIpkgyWD4qysGt8sMT-49" value="BNDM" style="text;html=1;strokeColor=none;fillColor=none;align=center;verticalAlign=middle;whiteSpace=wrap;rounded=0;fontSize=16;fontColor=#FFFFFF;" vertex="1" parent="1">
          <mxGeometry x="37" y="345" width="60" height="30" as="geometry" />
        </mxCell>
        <mxCell id="feFIpkgyWD4qysGt8sMT-50" value="SBNDM" style="text;html=1;strokeColor=none;fillColor=none;align=center;verticalAlign=middle;whiteSpace=wrap;rounded=0;fontSize=16;fontColor=#FFFFFF;" vertex="1" parent="1">
          <mxGeometry x="40" y="383" width="60" height="30" as="geometry" />
        </mxCell>
        <mxCell id="feFIpkgyWD4qysGt8sMT-51" value="AOSO" style="text;html=1;strokeColor=none;fillColor=none;align=center;verticalAlign=middle;whiteSpace=wrap;rounded=0;fontSize=16;fontColor=#FFFFFF;" vertex="1" parent="1">
          <mxGeometry x="37" y="425" width="60" height="30" as="geometry" />
        </mxCell>
        <mxCell id="feFIpkgyWD4qysGt8sMT-52" value="LBNDM" style="text;html=1;strokeColor=none;fillColor=none;align=center;verticalAlign=middle;whiteSpace=wrap;rounded=0;fontSize=16;fontColor=#FFFFFF;" vertex="1" parent="1">
          <mxGeometry x="40" y="470" width="60" height="30" as="geometry" />
        </mxCell>
        <mxCell id="feFIpkgyWD4qysGt8sMT-53" value="FAOSO" style="text;html=1;strokeColor=none;fillColor=none;align=center;verticalAlign=middle;whiteSpace=wrap;rounded=0;fontSize=16;fontColor=#FFFFFF;" vertex="1" parent="1">
          <mxGeometry x="38" y="510" width="60" height="30" as="geometry" />
        </mxCell>
        <mxCell id="feFIpkgyWD4qysGt8sMT-54" value="SO" style="text;html=1;strokeColor=none;fillColor=none;align=center;verticalAlign=middle;whiteSpace=wrap;rounded=0;fontSize=16;fontColor=#FFFFFF;" vertex="1" parent="1">
          <mxGeometry x="24" y="550" width="60" height="30" as="geometry" />
        </mxCell>
        <mxCell id="feFIpkgyWD4qysGt8sMT-55" value="AC" style="text;html=1;strokeColor=none;fillColor=none;align=center;verticalAlign=middle;whiteSpace=wrap;rounded=0;fontSize=16;fontColor=#FFFFFF;" vertex="1" parent="1">
          <mxGeometry x="44" y="623" width="60" height="30" as="geometry" />
        </mxCell>
        <mxCell id="feFIpkgyWD4qysGt8sMT-56" value="Bitap" style="text;html=1;strokeColor=none;fillColor=none;align=center;verticalAlign=middle;whiteSpace=wrap;rounded=0;fontSize=16;fontColor=#FFFFFF;" vertex="1" parent="1">
          <mxGeometry x="471" y="470" width="60" height="30" as="geometry" />
        </mxCell>
        <mxCell id="feFIpkgyWD4qysGt8sMT-57" value="Suffix trees" style="text;html=1;strokeColor=none;fillColor=none;align=center;verticalAlign=middle;whiteSpace=wrap;rounded=0;fontSize=16;fontColor=#FFFFFF;" vertex="1" parent="1">
          <mxGeometry x="716" y="345" width="90" height="30" as="geometry" />
        </mxCell>
        <mxCell id="feFIpkgyWD4qysGt8sMT-58" value="Metric trees" style="text;html=1;strokeColor=none;fillColor=none;align=center;verticalAlign=middle;whiteSpace=wrap;rounded=0;fontSize=16;fontColor=#FFFFFF;" vertex="1" parent="1">
          <mxGeometry x="720" y="395" width="87" height="30" as="geometry" />
        </mxCell>
        <mxCell id="feFIpkgyWD4qysGt8sMT-59" value="Examples" style="text;html=1;strokeColor=none;fillColor=none;align=center;verticalAlign=middle;whiteSpace=wrap;rounded=0;fontSize=16;fontColor=#000000;rotation=-90;fontStyle=1" vertex="1" parent="1">
          <mxGeometry x="-30" y="450" width="95" height="30" as="geometry" />
        </mxCell>
      </root>
    </mxGraphModel>
  </diagram>
</mxfile>
